<svg xmlns="http://www.w3.org/2000/svg" xmlns:xlink="http://www.w3.org/1999/xlink" version="1.1" x="0px" y="0px" viewBox="0 0 100 100" enable-background="new 0 0 100 100" xml:space="preserve"><path fill="rgb(80,220,150)" d="M38.772,62.078c0,0-30.444-21.74-29.796-39.272c0.003-0.087,0.012-0.171,0.018-0.255c-0.01-0.265-0.018-0.531-0.018-0.797  c0-9.102,6.816-16.48,15.224-16.48c6.705,0,12.541,4.698,14.572,11.213c0.05-0.158-0.049-0.158,0,0  C40.804,9.972,46.64,5.274,53.345,5.274c8.407,0,15.225,7.378,15.225,16.48c0,0.266-0.009,0.532-0.019,0.797  c0.006,0.083,0.015,0.167,0.019,0.255C69.216,40.338,38.772,62.078,38.772,62.078z"></path><path fill="none" stroke="#000000" stroke-width="5" stroke-miterlimit="10" d="M70.313,13.348h18.889V92.75H16.438V48.203"></path><path d="M80.349,84.385h-53.82v-5.312h53.82V84.385z"></path><path d="M81.058,69.867H43.879v-5.311h37.179V69.867z"></path><path d="M81.411,54.643H61.583v-5.312h19.828V54.643z"></path></svg>
